# xmcd CD database file
#
# Track frame offsets:
#	150
#	19862
#	39377
#	59100
#
# Disc length: 1044 seconds
#
# Revision: 2
# Processed by: cddbd v1.5.2PL0 Copyright (c) Steve Scherf et al.
# Submitted via: CDex 1.70beta3
#
DISCID=31041204
DTITLE=縺ｨ縺｡縺翫→繧・5 - GYO-ZA Party
DYEAR=2013
DGENRE=JPop
TTITLE0=GYO-ZA Party
TTITLE1=繧ゅｄ繧ゅｄ繝ｩ繝薙Μ繝ｳ繧ｹ
TTITLE2=GYO-ZA Party (Instrumental)
TTITLE3=繧ゅｄ繧ゅｄ繝ｩ繝薙Μ繝ｳ繧ｹ (Instrumental)
EXTD=YEAR: 2013
EXTT0=
EXTT1=
EXTT2=
EXTT3=
PLAYORDER=
